# xmcd
#
# Track frame offsets: 
#        150
#        13235
#        21547
#        37370
#        50380
#        68430
#        77280
#        90090
#        99250
#        114497
#        126302
#        138157
#        151290
#        168322
#        181540
#        193122
#
# Disc length: 2744 seconds
#
# Revision: 1
# Processed by: cddbd v1.5.1PL0 Copyright (c) Steve Scherf et al.
# Submitted via: ExactAudioCopy v0.95a5
#
DISCID=c10ab610
DTITLE=Nashville Christmas Orchestra - Sounds Of the Season
DYEAR=1900
DGENRE=Christmas
TTITLE0=Hark The Herald Angels Sing
TTITLE1=Jolly Old Saint Nicholas
TTITLE2=White Christmas
TTITLE3=Jingle Bells
TTITLE4=It Came Upon A Midnight Clear
TTITLE5=Up On The Housetop
TTITLE6=Silent Night
TTITLE7=Sleigh Ride
TTITLE8=Blue Christmas
TTITLE9=Deck The Halls
TTITLE10=O Christmas Tree
TTITLE11=We Wish You A Merry Christmas
TTITLE12=I Heard The Bells On Christmas Day
TTITLE13=O Little Town Of Bethlehem
TTITLE14=I'll Be Home For Christmas
TTITLE15=Let It Snow, Let It Snow
EXTD=
EXTT0=
EXTT1=
EXTT2=
EXTT3=
EXTT4=
EXTT5=
EXTT6=
EXTT7=
EXTT8=
EXTT9=
EXTT10=
EXTT11=
EXTT12=
EXTT13=
EXTT14=
EXTT15=
PLAYORDER=
